<svg xmlns="http://www.w3.org/2000/svg" viewBox="0 0 640 512">
<path fill="#2c2c2c" d="M320 32c-8.1 0-16.1 1.4-23.7 4.1L15.8 137.4C6.3 140.9 0 149.9 0 160s6.3 19.1 15.8 22.6l57.9 20.9C57.3 229.3 48 259.8 48 291.9v28.1c0 28.4-10.8 57.7-22.3 80.8c-6.5 13-13.9 25.8-22.5 37.6C0 442.7-.9 448.3 .9 453.4s6 8.9 11.2 10.2l64 16c4.2 1.1 8.7 .3 12.4-2s6.3-6.1 7.1-10.4c8.6-42.8 4.3-81.2-2.1-108.7C90.3 344.3 86 329.8 80 316.5V291.9c0-30.2 10.2-58.7 27.9-81.5c12.9-15.5 29.6-28 49.2-35.7l91-32.8C262.9 146.4 291.1 152 320 152s57.1-5.6 71.8-10.1l91 32.8c19.6 7.8 36.3 20.2 49.2 35.7c17.7 22.8 27.9 51.3 27.9 81.5v24.6c-6 13.3-10.3 27.8-13.5 41.9c-6.4 27.5-10.7 65.9-2.1 108.7c.8 4.3 3.4 8.1 7.1 10.4s8.2 3.1 12.4 2l64-16c5.2-1.3 9.4-5.1 11.2-10.2s.9-10.7-2.4-15c-8.5-11.8-16-24.6-22.5-37.6C601.8 377.7 592 348.3 592 319.9V291.9c0-32.1-9.3-62.6-25.7-88.5l57.9-20.9C633.7 179.1 640 170.1 640 160s-6.3-19.1-15.8-22.6L343.7 36.1C336.1 33.4 328.1 32 320 32zM352 305.2c-15.2 6.1-31.2 11.1-47.5 14.8c-10.4 2.4-21.1 3.6-32 3.6s-21.6-1.2-32-3.6c-16.3-3.7-32.3-8.7-47.5-14.8l-1.4-.6C163.6 293 144 320.1 144 352c0 35.3 43 64 96 64s96-28.7 96-64c0-31.9-19.6-59-42.6-67.4l-1.4 .6z"/>
</svg>